<svg xmlns="http://www.w3.org/2000/svg" xmlns:xlink="http://www.w3.org/1999/xlink" width="2716" zoomAndPan="magnify" viewBox="0 0 2037 412.499988" height="550" preserveAspectRatio="xMidYMid meet" version="1.0"><defs><g/><clipPath id="c19134f12a"><path d="M 61 46 L 2035.765625 46 L 2035.765625 365 L 61 365 Z M 61 46 " clip-rule="nonzero"/></clipPath><clipPath id="b8c9ec3362"><rect x="0" width="1975" y="0" height="319"/></clipPath></defs><g clip-path="url(#c19134f12a)"><g transform="matrix(1, 0, 0, 1, 61, 46)"><g clip-path="url(#b8c9ec3362)"><g fill="#4b4b4b" fill-opacity="1"><g transform="translate(0.31883, 255.976984)"><g><path d="M 358.15625 0 L 267.5 0 L 247.4375 -34.921875 L 112.953125 -34.921875 L 92.890625 0 L 2.234375 0 L 138.65625 -213.109375 L 221.734375 -213.109375 Z M 217.265625 -87.6875 L 180.265625 -152.328125 L 143.109375 -87.6875 Z M 217.265625 -87.6875 "/></g></g></g><g fill="#4b4b4b" fill-opacity="1"><g transform="translate(604.205492, 255.976984)"><g><path d="M 113.25 0 L 23.78125 0 L 23.78125 -213.265625 L 113.25 -213.265625 Z M 113.25 0 "/></g></g></g><g fill="#4b4b4b" fill-opacity="1"><g transform="translate(984.722609, 255.976984)"><g><path d="M 161.25 4.609375 C 108.539062 4.609375 69.75 -6.238281 44.875 -27.9375 C 22.882812 -47.15625 11.890625 -73.363281 11.890625 -106.5625 C 11.890625 -139.644531 22.882812 -165.796875 44.875 -185.015625 C 69.75 -206.710938 108.539062 -217.5625 161.25 -217.5625 C 213.957031 -217.5625 252.742188 -206.710938 277.609375 -185.015625 C 299.597656 -165.796875 310.59375 -139.644531 310.59375 -106.5625 C 310.59375 -73.363281 299.597656 -47.15625 277.609375 -27.9375 C 252.742188 -6.238281 213.957031 4.609375 161.25 4.609375 Z M 161.25 -52.609375 C 182.84375 -52.609375 198.691406 -58.800781 208.796875 -71.1875 C 216.921875 -81.195312 220.984375 -92.988281 220.984375 -106.5625 C 220.984375 -120.132812 216.921875 -131.875 208.796875 -141.78125 C 198.691406 -154.257812 182.84375 -160.5 161.25 -160.5 C 139.644531 -160.5 123.742188 -154.257812 113.546875 -141.78125 C 105.421875 -131.875 101.359375 -120.132812 101.359375 -106.5625 C 101.359375 -92.988281 105.421875 -81.195312 113.546875 -71.1875 C 123.742188 -58.800781 139.644531 -52.609375 161.25 -52.609375 Z M 161.25 -52.609375 "/></g></g></g><g fill="#4b4b4b" fill-opacity="1"><g transform="translate(1550.71225, 255.976984)"><g><path d="M 340.171875 0 L 233.765625 0 L 113.25 -144.296875 L 113.25 0 L 23.78125 0 L 23.78125 -213.265625 L 130.1875 -213.265625 L 250.703125 -69.703125 L 250.703125 -213.265625 L 340.171875 -213.265625 Z M 340.171875 0 "/></g></g></g></g></g></g></svg>